<svg xmlns="http://www.w3.org/2000/svg" xmlns:xlink="http://www.w3.org/1999/xlink" x="0px" y="0px"
    viewBox="0 0 422.96 432" style="fill: #fff; transform: rotate(40deg);" xml:space="preserve" opacity="0.8">
        <g id="simple-flower-silhouette-clip-art-2">
            <path d="M324.104,158.364l-83.41,36.764
                c-1.43-4.51-3.656-8.735-6.546-12.508l67.296-59.609c39.024-34.567,27.699-98.17-20.86-117.142
                c-48.558-18.972-100.002,20.108-94.746,71.975l9.062,89.442c-4.682,0.815-9.184,2.411-13.292,4.757l-36.397-83.571
                c-20.816-47.797-84.806-56.68-117.855-16.36c-33.048,40.319-11.778,101.321,39.175,112.35l94.623,20.483
                c-0.246,4.051,0.124,8.066,1.051,11.932l-98.12,9.507c-51.89,5.028-80.112,63.141-51.978,107.031h0
                c28.133,43.89,92.722,42.511,118.957-2.539l51.121-87.785c1.544,0.849,3.134,1.64,4.82,2.299c1.685,0.658,3.391,1.155,5.102,1.578
                l-21.929,99.19c-11.253,50.903,35.294,95.703,85.73,82.509l0.001,0c50.436-13.194,69.083-75.048,34.345-113.92l-65.688-73.505
                c3.302-2.214,6.296-4.914,8.861-8.059l83.447,49.087c44.934,26.433,101.925-3.993,104.962-56.037
                C424.873,174.187,371.809,137.338,324.104,158.364z"/>
        </g>
</svg>